REM DIRINDEX 1\2,1\3
REM DIRNAME cjc039,folder01,folder02
TITLE ""
FILE "1461-1480.mp3" MP3
  TRACK 01 AUDIO
    TITLE "0:"
    INDEX 01 00:00:00
  TRACK 02 AUDIO
    TITLE "2:cjc039_1921"
    INDEX 01 00:00:23
  TRACK 03 AUDIO
    TITLE "0:"
    INDEX 01 00:01:38
  TRACK 04 AUDIO
    TITLE "3:cjc039_1922"
    INDEX 01 00:02:14
  TRACK 05 AUDIO
    TITLE "0:"
    INDEX 01 00:05:20
  TRACK 06 AUDIO
    TITLE "2:cjc039_1923"
    INDEX 01 00:06:73
  TRACK 07 AUDIO
    TITLE "0:"
    INDEX 01 00:08:15
  TRACK 08 AUDIO
    TITLE "3:cjc039_1924"
    INDEX 01 00:08:64
  TRACK 09 AUDIO
    TITLE "0:"
    INDEX 01 00:11:68
  TRACK 10 AUDIO
    TITLE "2:cjc039_1925"
    INDEX 01 00:13:43
  TRACK 11 AUDIO
    TITLE "0:"
    INDEX 01 00:14:49
  TRACK 12 AUDIO
    TITLE "3:cjc039_1926"
    INDEX 01 00:15:25
  TRACK 13 AUDIO
    TITLE "0:"
    INDEX 01 00:18:66
  TRACK 14 AUDIO
    TITLE "2:cjc039_1927"
    INDEX 01 00:20:37
  TRACK 15 AUDIO
    TITLE "0:"
    INDEX 01 00:21:45
  TRACK 16 AUDIO
    TITLE "3:cjc039_1928"
    INDEX 01 00:22:21
  TRACK 17 AUDIO
    TITLE "0:"
    INDEX 01 00:25:50
  TRACK 18 AUDIO
    TITLE "2:cjc039_1929"
    INDEX 01 00:27:28
  TRACK 19 AUDIO
    TITLE "0:"
    INDEX 01 00:28:27
  TRACK 20 AUDIO
    TITLE "3:cjc039_1930"
    INDEX 01 00:29:07
  TRACK 21 AUDIO
    TITLE "0:"
    INDEX 01 00:31:41
  TRACK 22 AUDIO
    TITLE "2:cjc039_1931"
    INDEX 01 00:33:17
  TRACK 23 AUDIO
    TITLE "0:"
    INDEX 01 00:34:47
  TRACK 24 AUDIO
    TITLE "3:cjc039_1932"
    INDEX 01 00:35:19
  TRACK 25 AUDIO
    TITLE "0:"
    INDEX 01 00:39:41
  TRACK 26 AUDIO
    TITLE "2:cjc039_1933"
    INDEX 01 00:41:14
  TRACK 27 AUDIO
    TITLE "0:"
    INDEX 01 00:42:08
  TRACK 28 AUDIO
    TITLE "3:cjc039_1934"
    INDEX 01 00:42:63
  TRACK 29 AUDIO
    TITLE "0:"
    INDEX 01 00:46:17
  TRACK 30 AUDIO
    TITLE "2:cjc039_1935"
    INDEX 01 00:47:66
  TRACK 31 AUDIO
    TITLE "0:"
    INDEX 01 00:49:04
  TRACK 32 AUDIO
    TITLE "3:cjc039_1936"
    INDEX 01 00:49:63
  TRACK 33 AUDIO
    TITLE "0:"
    INDEX 01 00:53:21
  TRACK 34 AUDIO
    TITLE "2:cjc039_1937"
    INDEX 01 00:54:72
  TRACK 35 AUDIO
    TITLE "0:"
    INDEX 01 00:56:04
  TRACK 36 AUDIO
    TITLE "3:cjc039_1938"
    INDEX 01 00:56:57
  TRACK 37 AUDIO
    TITLE "0:"
    INDEX 01 01:00:00
  TRACK 38 AUDIO
    TITLE "2:cjc039_1939"
    INDEX 01 01:01:54
  TRACK 39 AUDIO
    TITLE "0:"
    INDEX 01 01:02:69
  TRACK 40 AUDIO
    TITLE "3:cjc039_1940"
    INDEX 01 01:03:41
  TRACK 41 AUDIO
    TITLE "0:"
    INDEX 01 01:07:10
  TRACK 42 AUDIO
    TITLE "2:cjc039_1941"
    INDEX 01 01:08:64
  TRACK 43 AUDIO
    TITLE "0:"
    INDEX 01 01:10:24
  TRACK 44 AUDIO
    TITLE "3:cjc039_1942"
    INDEX 01 01:11:00
  TRACK 45 AUDIO
    TITLE "0:"
    INDEX 01 01:14:59
  TRACK 46 AUDIO
    TITLE "2:cjc039_1943"
    INDEX 01 01:16:28
  TRACK 47 AUDIO
    TITLE "0:"
    INDEX 01 01:17:47
  TRACK 48 AUDIO
    TITLE "3:cjc039_1944"
    INDEX 01 01:18:21
  TRACK 49 AUDIO
    TITLE "0:"
    INDEX 01 01:22:05
  TRACK 50 AUDIO
    TITLE "2:cjc039_1945"
    INDEX 01 01:23:54
  TRACK 51 AUDIO
    TITLE "0:"
    INDEX 01 01:24:61
  TRACK 52 AUDIO
    TITLE "3:cjc039_1946"
    INDEX 01 01:25:39
  TRACK 53 AUDIO
    TITLE "0:"
    INDEX 01 01:28:71
  TRACK 54 AUDIO
    TITLE "2:cjc039_1947"
    INDEX 01 01:30:42
  TRACK 55 AUDIO
    TITLE "0:"
    INDEX 01 01:32:08
  TRACK 56 AUDIO
    TITLE "3:cjc039_1948"
    INDEX 01 01:32:57
  TRACK 57 AUDIO
    TITLE "0:"
    INDEX 01 01:37:32
  TRACK 58 AUDIO
    TITLE "2:cjc039_1949"
    INDEX 01 01:39:06
  TRACK 59 AUDIO
    TITLE "0:"
    INDEX 01 01:40:05
  TRACK 60 AUDIO
    TITLE "3:cjc039_1950"
    INDEX 01 01:40:60
  TRACK 61 AUDIO
    TITLE "0:"
    INDEX 01 01:44:19
  TRACK 62 AUDIO
    TITLE "2:cjc039_1951"
    INDEX 01 01:45:69
  TRACK 63 AUDIO
    TITLE "0:"
    INDEX 01 01:47:31
  TRACK 64 AUDIO
    TITLE "3:cjc039_1952"
    INDEX 01 01:48:12
  TRACK 65 AUDIO
    TITLE "0:"
    INDEX 01 01:52:30
  TRACK 66 AUDIO
    TITLE "2:cjc039_1953"
    INDEX 01 01:54:09
  TRACK 67 AUDIO
    TITLE "0:"
    INDEX 01 01:55:20
  TRACK 68 AUDIO
    TITLE "3:cjc039_1954"
    INDEX 01 01:56:00
  TRACK 69 AUDIO
    TITLE "0:"
    INDEX 01 01:58:50
  TRACK 70 AUDIO
    TITLE "2:cjc039_1955"
    INDEX 01 02:00:25
  TRACK 71 AUDIO
    TITLE "0:"
    INDEX 01 02:01:70
  TRACK 72 AUDIO
    TITLE "3:cjc039_1956"
    INDEX 01 02:02:50
  TRACK 73 AUDIO
    TITLE "0:"
    INDEX 01 02:06:26
  TRACK 74 AUDIO
    TITLE "2:cjc039_1957"
    INDEX 01 02:08:07
  TRACK 75 AUDIO
    TITLE "0:"
    INDEX 01 02:09:17
  TRACK 76 AUDIO
    TITLE "3:cjc039_1958"
    INDEX 01 02:09:73
  TRACK 77 AUDIO
    TITLE "0:"
    INDEX 01 02:12:64
  TRACK 78 AUDIO
    TITLE "2:cjc039_1959"
    INDEX 01 02:14:41
  TRACK 79 AUDIO
    TITLE "0:"
    INDEX 01 02:15:45
  TRACK 80 AUDIO
    TITLE "3:cjc039_1960"
    INDEX 01 02:16:23
  TRACK 81 AUDIO
    TITLE "0:"
    INDEX 01 02:19:15
